<svg width="93" height="79" viewBox="0 0 93 79" fill="none" xmlns="http://www.w3.org/2000/svg">
<g clip-path="url(#clip0_278_2)">
<path d="M38.9608 3.49779C44.5192 1.12634 50.6367 0.156601 56.6524 0.572619C62.5414 1.01908 68.3313 2.81651 73.4184 5.8504C77.9778 8.55959 81.9823 12.2153 85.1059 16.5248C88.7526 21.5431 91.1863 27.4558 92.106 33.6106C92.8118 38.4897 92.6681 43.5167 91.5108 48.3144C92.264 49.8002 92.6406 51.5109 92.3863 53.1721C92.0958 55.6726 90.5062 57.9597 88.2928 59.1181C87.7881 59.4675 87.0406 59.4733 86.6971 60.0285C82.665 66.5424 76.7056 71.8392 69.7559 74.9892C68.3055 75.6719 66.7948 76.2126 65.2785 76.7228L64.9639 76.7924C57.6591 79.0537 49.6857 78.974 42.3909 76.7025C36.9303 74.9587 31.8432 72.0162 27.6431 68.0836C23.6214 64.3452 20.393 59.7429 18.2526 54.6652C17.2981 52.4372 16.6067 50.1063 16.0433 47.7523C15.0371 47.1322 13.8241 46.955 12.6654 47.0901C10.2722 47.3395 8.00833 48.2118 5.69253 48.809C7.34267 47.5827 9.1423 46.5622 11.008 45.7113C8.04412 45.7506 5.13769 46.4535 2.26289 47.1264C1.49244 47.3192 0.721846 47.5176 -0.039978 47.7394C2.91964 44.5462 6.81356 42.3851 10.8282 40.8396C9.45536 40.6627 8.0641 40.4986 6.75305 40.0249C5.52407 39.6104 4.37846 38.9682 3.34927 38.1768C4.34108 38.1463 5.3372 38.21 6.32614 38.0941C9.37918 38.1159 12.5846 37.9492 15.307 36.4025C15.8071 29.7274 18.084 23.1972 21.8212 17.6672C26.0184 11.4094 32.044 6.40847 38.9608 3.49779Z" fill="black"/>
<path d="M49.5931 1.96582C54.4904 1.45848 59.4968 1.79332 64.2288 3.20662C74.2374 6.08251 82.8791 13.394 87.4443 22.8218C89.701 27.3908 91.0149 32.4365 91.2462 37.5361C91.2133 38.6027 91.4045 39.6669 91.2649 40.7309C91.2333 42.831 90.953 44.9172 90.5692 46.9796C90.2931 46.7169 90.0084 46.4637 89.7155 46.2203C90.1367 43.4981 90.443 40.7335 90.2675 37.9768C90.23 37.2561 90.2071 36.5359 90.1367 35.8181C89.5647 30.0955 87.6485 24.5102 84.5466 19.6804C81.4259 14.7767 77.1352 10.6354 72.1417 7.70586C66.967 4.66762 61.0393 2.90932 55.0481 2.76582C54.3279 2.65855 53.5977 2.73683 52.8733 2.71219L52.777 2.78321C46.4883 2.87308 40.2642 4.81982 34.9027 8.10883C29.6476 11.3529 25.2189 15.9508 22.1745 21.3547C19.8258 25.4816 18.308 30.0808 17.7029 34.7976C17.4196 35.1455 16.9999 35.3398 16.6263 35.5702C17.309 28.5417 20.0818 21.7534 24.4084 16.2073C28.9247 10.3961 35.1587 5.95177 42.1129 3.63554C44.5422 2.82539 47.0532 2.26877 49.5931 1.96582Z" fill="#F9FCFA"/>
<path d="M51.2434 5.0038C51.9866 4.62547 53.0214 4.56894 53.6396 5.21108C54.0621 5.59521 54.1296 6.19967 54.2706 6.72441C53.8667 6.75919 53.4614 6.78239 53.0576 6.77804C52.9196 6.52002 52.9139 6.1098 52.5948 6.00253C52.3375 5.93586 52.073 6.00978 51.8171 6.03877C51.7968 6.2562 51.7855 6.47364 51.7797 6.69252C52.5098 6.96358 53.3291 7.11723 53.9014 7.6927C54.541 8.30151 54.4908 9.34228 54.1082 10.0786C53.5375 11.16 51.9376 11.3092 51.0465 10.5642C50.5706 10.1105 50.4803 9.43215 50.3824 8.81464C50.8167 8.81464 51.2506 8.81464 51.6849 8.8103C51.7797 9.07556 51.8171 9.37417 51.9968 9.60319C52.1734 9.87136 52.5156 9.76699 52.7843 9.78149C52.9739 9.4452 53.0806 9.04788 52.9553 8.66969C52.5371 8.27252 51.9147 8.27831 51.4215 8.01885C50.2831 7.5173 50.1624 5.63145 51.2434 5.0038Z" fill="#FCFDFC"/>
<path d="M56.944 5.06607C57.6556 4.92111 58.5439 4.94286 59.0685 5.53137C59.5012 5.97493 59.5558 6.63592 59.55 7.22443C59.175 7.21429 58.8012 7.1824 58.4305 7.13601C58.3081 6.8664 58.235 6.57939 58.1241 6.30542C57.8783 6.26919 57.5851 6.06625 57.3607 6.25179C57.0702 6.3866 57.0332 6.8432 57.3436 6.97656C57.9529 7.30271 58.6461 7.55493 59.0715 8.1362C59.612 8.81168 59.4523 9.82346 58.9954 10.4989C58.261 11.547 56.4727 11.492 55.7727 10.4411C55.4478 9.95537 55.4707 9.34091 55.4509 8.78284C55.8778 8.83502 56.3045 8.89445 56.7345 8.91764C56.8106 9.24959 56.7777 9.64386 57.0334 9.90188C57.1802 9.989 57.3497 10.0252 57.5121 10.0731C57.5955 10.0267 57.7593 9.93537 57.8413 9.88884C58.0179 9.57284 58.0553 9.21335 57.9908 8.85966C57.4142 8.49148 56.707 8.31173 56.2269 7.80729C55.5513 6.95772 55.846 5.40236 56.944 5.06607ZM45.4176 5.96623C45.9468 5.54442 46.6754 5.4415 47.3192 5.60964C48.0724 5.87926 48.5769 6.62142 48.6817 7.40563C48.2592 7.51434 47.8349 7.62016 47.4053 7.68394C47.3392 7.47375 47.2745 7.26357 47.2099 7.05484C46.9828 7.00265 46.7572 6.95192 46.5302 6.90119C46.3045 7.05919 46.0156 7.18675 45.9552 7.48825C46.0875 8.29275 46.2571 9.09144 46.4438 9.88289C46.5459 10.4192 47.2947 10.5919 47.6511 10.2032C47.8927 9.99161 47.802 9.63227 47.851 9.35091C48.2406 9.2277 48.6358 9.10449 49.0426 9.04941C49.317 9.42919 49.2942 9.95102 49.1834 10.3873C48.9016 11.1512 48.1152 11.5673 47.3751 11.7586C46.3975 11.8963 45.2939 11.2266 45.1414 10.2018C44.9689 9.30597 44.7862 8.41161 44.6353 7.51289C44.5121 6.88089 44.946 6.32282 45.4176 5.96623ZM65.5399 9.01752C65.859 8.34348 66.4668 7.67669 67.2689 7.71148C68.3815 7.71873 69.6406 8.64208 69.4538 9.8742C69.2928 10.7222 68.8053 11.4556 68.5022 12.2543C68.1574 12.9791 67.9058 13.7532 67.4917 14.4431C67.0994 14.3402 66.7444 14.1374 66.3763 13.9736C66.4684 13.4199 66.7716 12.9416 66.9784 12.4299C67.3175 11.6196 67.7043 10.8296 68.0248 10.012C68.1571 9.73953 67.9859 9.47717 67.8998 9.2235C67.5577 9.17276 67.0832 9.05535 66.8993 9.45252C66.3171 10.7412 65.7665 12.0443 65.1832 13.3315C64.7073 13.2837 64.2818 13.0488 63.8765 12.8126C64.4214 11.5439 64.9921 10.2859 65.5399 9.01752Z" fill="#FBFDFA"/>
<path d="M34.9835 10.412C35.3572 10.1857 35.7267 9.94816 36.1189 9.75537C36.9972 11.1556 37.7547 12.6313 38.62 14.0404C39.2697 13.6706 39.9007 13.2705 40.5634 12.93C40.7847 13.2982 40.9946 13.6722 41.1888 14.0549C40.1451 14.6216 39.1362 15.2507 38.0998 15.8336C37.0577 14.027 36.0429 12.2065 34.9835 10.412Z" fill="#FAFDFA"/>
<path d="M71.1471 10.8602C72.08 10.2339 73.5089 10.5978 74.0318 11.5965C74.1887 11.8603 74.2633 12.1618 74.364 12.4517C74.3353 12.8591 74.2807 13.2881 74.0277 13.6244C73.4829 14.384 72.9768 15.1725 72.4063 15.9117C71.9882 16.4394 71.2492 16.5509 70.6268 16.4075C69.4654 16.1858 68.6072 14.8346 69.0786 13.6997C69.3775 13.1546 69.777 12.6719 70.1119 12.1486C70.4399 11.7067 70.6999 11.195 71.1471 10.8602Z" fill="#FBFDFA"/>
<path d="M71.4618 12.3237C71.617 12.0672 71.8873 11.934 72.1519 11.8164C72.3705 11.9137 72.5889 12.0135 72.8045 12.121C72.9209 12.4486 73.069 12.8369 72.8388 13.1545C72.4982 13.6821 72.1374 14.1967 71.7696 14.704C71.4289 15.123 70.8092 15.1447 70.401 14.8157C70.3436 14.6533 70.286 14.4939 70.2285 14.333C70.5003 13.585 71.0306 12.9791 71.4618 12.3237Z" fill="#010101"/>
<path d="M31.4962 13.0659C32.2092 12.3165 33.5675 12.1541 34.3122 12.9441C35.2996 14.024 36.3173 15.0793 37.279 16.1868C36.9657 16.4781 36.6624 16.7811 36.349 17.071C35.3213 16.0853 34.4387 14.9577 33.4167 13.9677C33.2026 13.737 32.8705 13.8343 32.596 13.8256C32.4192 14.0996 32.2237 14.4867 32.4767 14.7808C33.3865 15.8202 34.341 16.8218 35.2911 17.8249C35.2868 17.9133 35.2839 18.0032 35.281 18.0932C34.9576 18.3541 34.666 18.6513 34.3597 18.9325C33.503 17.9756 32.6032 17.0581 31.7567 16.0927C31.5195 15.8492 31.2608 15.5087 30.8755 15.6187C30.4803 15.7303 30.2373 16.271 30.5708 16.5855C31.5152 17.6524 32.4955 18.6874 33.4715 19.7267C33.1826 20.0804 32.8347 20.3761 32.4883 20.6719C31.5094 19.6471 30.5636 18.5889 29.5905 17.5596C29.0243 17.0146 28.925 16.1217 29.2342 15.4157C29.4841 14.6765 30.2388 14.2519 30.9862 14.217C31.0937 13.8095 31.1958 13.3791 31.4962 13.0659Z" fill="#FBFDFB"/>
<path d="M42.9452 15.1664C48.0308 12.8123 53.8694 12.1847 59.3389 13.3617C64.6214 14.4751 69.5215 17.2959 73.2011 21.2691C75.212 23.4534 76.868 25.9655 78.0795 28.6848C78.8988 30.6243 79.5657 32.6438 79.8992 34.7308C77.1495 34.1873 74.4341 33.4494 71.7936 32.5C70.5401 32.0434 69.2984 31.5389 68.1267 30.8953C67.9413 30.7982 67.776 30.6707 67.6481 30.5069C67.1177 29.872 66.5873 29.24 66.0554 28.608C65.9216 28.3601 65.6341 28.454 65.4116 28.4424C65.364 28.1852 65.3242 27.9266 65.2923 27.6669C64.7706 27.1306 64.7819 26.3681 64.7575 25.668C64.5419 23.5444 64.6455 21.3614 64.0244 19.2958C63.2094 17.4665 61.5391 15.9865 59.5512 15.6386C58.1467 15.417 56.6936 15.527 55.3281 15.9213C52.7897 16.6388 50.4695 17.9595 48.269 19.3958C46.2812 20.7136 44.3923 22.179 42.5641 23.7113C40.3032 23.8374 38.2131 24.8042 36.2266 25.8262C34.9243 26.4654 33.6249 27.1728 32.1947 27.4743C31.4832 27.5656 30.7673 27.6207 30.0673 27.7916C32.7425 22.2503 37.3754 17.7044 42.9452 15.1664Z" fill="white"/>
<path d="M75.7438 13.9155C75.9866 13.6691 76.198 13.314 76.5906 13.3386C77.2245 14.117 78.242 14.6287 78.5108 15.6622C78.6029 16.2262 78.4806 16.8567 78.0796 17.2785C77.4931 17.9438 76.8921 18.5976 76.2699 19.2296C75.7726 19.7572 74.959 19.8005 74.3091 19.5905C73.4914 19.1455 72.8645 18.4278 72.189 17.7974C73.3405 16.4724 74.5795 15.2287 75.7438 13.9155Z" fill="#FBFDFB"/>
<path d="M76.4913 15.1953C76.8594 15.4185 77.1609 15.7519 77.1828 16.2085C76.5302 16.9203 75.8791 17.6349 75.2135 18.335C75.0079 18.3307 74.801 18.3278 74.5969 18.3234C74.423 18.1524 74.2475 17.9813 74.0735 17.813C74.8925 16.9528 75.6985 16.0801 76.4913 15.1953Z" fill="#010001"/>
<path d="M51.7636 20.0022C53.7661 18.8411 55.8961 17.7438 58.222 17.4755C59.6968 17.2755 61.3583 17.7147 62.2797 18.9613C63.0313 19.7906 63.1149 20.9633 63.217 22.0271C63.3492 23.0954 63.2903 24.1782 63.454 25.2451C63.0415 25.3248 62.6333 25.4437 62.2135 25.477C61.9979 25.3741 61.7838 25.2742 61.5939 25.1305C61.5206 24.8406 61.476 24.5449 61.4314 24.2492C59.7367 24.5667 57.9499 24.9204 56.563 26.0219C55.8657 26.5582 55.4531 27.3875 55.3094 28.2484C55.308 28.5078 55.3022 28.7688 55.3209 29.0311C55.5553 29.228 55.8917 29.1761 56.1746 29.2468C55.7793 29.9791 55.4257 30.7459 55.3179 31.5809V32.1607C55.9805 32.0563 56.544 31.6736 57.1637 31.4432C57.1365 31.5925 57.083 31.8911 57.0573 32.0404C57.0443 32.2433 57.0328 32.4462 57.0229 32.6492C57.1522 32.9703 57.3085 33.2797 57.4901 33.574C58.3827 33.378 59.1545 32.8579 60.007 32.5503L59.9091 33.049C59.9436 33.1475 60.0113 33.3432 60.0441 33.4403C60.9624 33.2142 61.8306 32.817 62.6042 32.2691C63.612 31.6168 64.5907 30.7601 65.817 30.5991C66.5013 31.034 66.8201 31.9327 67.5434 32.3519C68.7192 33.0677 69.9958 33.5953 71.2749 34.0913C73.9024 35.0756 76.6063 35.8522 79.3488 36.4335C80.7747 36.748 82.2278 36.9626 83.6106 37.4467C84.3839 37.7294 85.1631 38.2063 85.5052 38.9963C86.149 40.5487 86.1406 42.3853 85.3817 43.8943C84.702 45.1583 83.4885 46.1904 82.0684 46.4655C76.3819 47.7918 70.6035 48.6836 64.8226 49.4588C63.1049 49.6501 61.3915 49.8589 59.6693 50.0054C55.6994 50.3636 51.7132 50.5648 47.7244 50.5158C46.4178 50.5346 45.0997 50.5042 43.8233 50.1985C43.3232 50.0073 42.8097 49.7925 42.449 49.3782C41.9546 48.8939 41.8166 48.1896 41.69 47.5358C41.4787 46.3356 41.1957 45.141 41.1553 43.9176C41.1107 42.8535 41.4688 41.8374 41.6684 40.8053C42.288 37.6918 42.7737 34.5476 43.5629 31.4688C43.6677 31.0919 43.6088 30.6933 43.7124 30.3167C44.128 28.5657 44.618 26.8348 45.0665 25.0924C45.1197 24.9431 45.1398 24.7632 45.2648 24.6576C47.3337 22.9738 49.4724 21.3662 51.7636 20.0022Z" fill="white"/>
<path d="M75.5986 21.227C77.2761 20.0036 78.9478 18.7728 80.628 17.5537C81.2274 18.425 81.8613 19.2716 82.4707 20.1355C82.1243 20.3819 81.7979 20.6602 81.4228 20.8603C81.0117 20.3906 80.6682 19.8644 80.3089 19.354C80.0415 19.5426 79.7713 19.7266 79.501 19.9092C79.5167 20.3325 79.8634 20.6209 80.0615 20.969C79.7438 21.208 79.4218 21.4444 79.0912 21.6662C78.8715 21.3575 78.66 21.0429 78.4128 20.7573C78.1267 20.9255 77.8592 21.1212 77.5892 21.3109L77.3996 21.5488C77.7647 22.046 78.1298 22.543 78.4734 23.0578C78.1328 23.3187 77.7833 23.5666 77.4226 23.7983C76.8262 22.9331 76.152 22.1214 75.5986 21.227Z" fill="#FBFDFB"/>
<path d="M26.5789 18.2439C26.714 18.0597 26.8247 17.8482 27.0132 17.7134C27.3882 17.8815 27.6872 18.1801 28.0193 18.4208C27.7577 18.7875 27.4889 19.147 27.2474 19.5297C28.574 20.4877 29.8836 21.4691 31.2132 22.4213C31.0163 22.7984 30.7561 23.1345 30.5017 23.4723C29.1491 22.5069 27.8238 21.5038 26.4698 20.5413C26.2398 20.8848 26.0213 21.2385 25.7569 21.556C25.3357 21.5342 25.0425 21.1168 24.6903 20.9153C25.2638 19.9863 25.9666 19.147 26.5789 18.2439Z" fill="#FCFDFA"/>
<path d="M23.2097 23.6797C23.4354 23.2374 23.6625 22.7953 23.9371 22.3823C25.7124 23.3564 27.5336 24.2579 29.2799 25.2829C29.3014 25.7728 28.8903 26.2106 28.6618 26.6325C27.9273 26.2788 27.2546 25.7916 26.487 25.5164C26.3735 25.7685 26.257 26.0221 26.1435 26.2774C26.8362 26.6949 27.6037 26.9848 28.2606 27.466C28.0493 27.8978 27.8179 28.3199 27.5937 28.7444C25.7725 27.821 23.9872 26.8237 22.1847 25.8685C22.1172 25.5931 22.3529 25.3394 22.4492 25.0915C22.5771 24.9103 22.6289 24.6235 22.8545 24.5437C23.5847 24.8728 24.2602 25.3163 24.9904 25.6497C25.1255 25.3961 25.2635 25.1438 25.4101 24.896C24.68 24.4842 23.9327 24.1029 23.2097 23.6797Z" fill="#FCFEFB"/>
<path d="M78.0639 24.3698C78.2264 23.9233 78.7753 23.8956 79.1247 24.1291C79.2773 24.4451 79.2899 24.78 79.116 25.0902C78.9406 25.1598 78.7667 25.2293 78.5926 25.3018C78.2722 25.1206 77.7995 24.7945 78.0639 24.3698Z" fill="#F6FCF8"/>
<path d="M56.8606 27.2846C58.1803 26.1395 59.8418 25.5596 61.476 25.0435L61.5939 25.1306C61.7835 25.2741 61.9979 25.3741 62.2135 25.477C60.3979 26.2003 58.6486 27.0817 56.8576 27.8615C56.8549 27.6673 56.8565 27.4772 56.8606 27.2846Z" fill="#F8FBF9"/>
<path d="M79.5874 26.3496C79.8275 25.7785 80.3722 25.4306 80.914 25.1914C81.0994 25.6219 81.2948 26.0481 81.4775 26.4815C81.1052 26.683 80.7572 26.98 80.8378 27.4498C81.0534 27.5049 81.2791 27.6962 81.5077 27.5788C82.8689 27.0265 84.1699 26.3351 85.5151 25.7466C85.7093 26.2017 85.9291 26.6437 86.1104 27.1048C85.1313 27.5817 84.1354 28.0238 83.1563 28.5007C82.4809 28.7747 81.7793 29.182 81.0263 29.0385C79.8706 28.8443 79.0816 27.4309 79.5874 26.3496Z" fill="#FCFDFB"/>
<path d="M33.3591 29.3693C36.7976 28.6707 39.573 26.0542 43.1049 25.6875C42.6965 27.3704 42.2022 29.0316 41.8012 30.7174C41.6804 31.245 41.7005 31.7973 41.5381 32.3163C40.6196 35.9126 40.1582 39.6074 39.303 43.2183C39.0715 44.3024 39.2009 45.423 39.405 46.5012C39.5071 47.2217 39.658 47.9406 39.9368 48.6161C38.7596 48.6671 37.6039 49.0715 36.6021 49.6876C35.4593 50.3659 34.6012 51.5572 33.2227 51.7804C31.4963 51.9065 30.013 50.7875 28.3241 50.6586C27.7116 50.6556 27.1411 50.9643 26.5243 50.9397C26.6364 50.8556 26.7487 50.7744 26.8622 50.6932C27.7261 50.2369 28.5855 49.709 29.5703 49.567C30.7718 49.4292 31.9808 49.3437 33.1737 49.1437C33.8263 49.0248 34.4273 48.7146 34.9246 48.2754C35.5801 47.7188 36.6567 47.5985 36.9557 46.6824C37.0188 46.0301 36.8838 44.9777 36.0745 44.891C35.3846 44.9907 34.8168 45.4561 34.285 45.8782C33.3995 46.5812 32.6003 47.4002 31.6445 48.0104C31.2147 48.3093 30.6713 48.2221 30.1799 48.2293C29.4524 48.2177 28.7612 47.941 28.0395 47.8858C26.9485 48.002 25.9064 48.3775 24.8729 48.7309C24.0808 48.9773 23.2716 49.2472 22.4323 49.205C21.2924 49.1717 20.2058 48.7527 19.1981 48.2411C19.891 48.2179 20.591 48.2803 21.2795 48.1657C23.6095 47.8279 25.7182 46.6886 27.9879 46.1247C28.7123 45.9102 29.4928 46.1305 30.2058 45.8506C31.2766 45.4766 32.2857 44.5734 32.4323 43.3906C32.5056 42.9325 32.3259 42.5064 32.1146 42.1165C31.4707 41.5266 30.5752 41.8834 29.9138 42.2458C28.005 43.3358 26.4369 44.9303 24.5423 46.0418C24.0292 46.3361 23.4428 46.51 22.8491 46.4857C21.5799 46.4509 20.3639 46.0433 19.1161 45.8479C17.9647 45.6319 16.7903 45.6739 15.6262 45.7203C17.8182 44.6505 20.3179 44.7622 22.6651 44.3286C23.5247 44.162 24.4619 44.0475 25.1648 43.4779C25.4437 43.2749 25.4537 42.9009 25.5011 42.5907C25.2065 41.7573 24.5237 40.9629 23.5867 40.9441C22.1335 40.9893 20.926 41.9167 19.7574 42.6835C18.9496 43.2097 18.133 43.9693 17.0966 43.8462C16.0344 43.7012 14.9967 43.3477 13.9142 43.3619L13.8208 43.2996C12.7787 43.2807 11.7382 43.3925 10.7147 43.5851C11.5772 43.0416 12.4482 42.4751 13.437 42.1965C14.6056 41.8531 15.8432 41.9906 17.0305 41.7732C19.01 41.2082 20.2862 39.4267 22.0557 38.4772C22.5848 38.2178 23.1855 38.0018 23.7791 38.1337C25.2726 38.3772 26.1595 39.8468 27.5897 40.2428C28.8661 40.5588 30.2015 40.0703 31.2335 39.3151C31.7941 38.9222 32.2528 38.3584 32.405 37.6756C32.1477 36.9538 31.2536 36.8132 30.591 36.8753C29.48 36.9754 28.8273 38.0018 27.8901 38.4756C26.493 38.3208 25.4725 37.2479 24.1904 36.793C23.3653 36.5828 22.408 36.6843 21.7395 37.2551C20.6745 38.1191 19.5575 38.9859 18.2221 39.3758C16.6712 39.8831 14.9967 39.6312 13.4817 39.1181C15.0657 38.9557 16.6728 38.6148 18.0455 37.7641C19.7287 36.7524 20.9807 34.9547 22.9988 34.5694C24.1214 34.2752 25.2309 34.7825 26.1954 35.3188C26.8049 35.626 27.4677 35.99 28.1718 35.8549C29.2342 35.6113 30.0045 34.7837 30.9 34.2212C31.3241 33.9444 31.8974 33.9197 32.2196 33.4892C32.4898 33.2628 32.3992 32.8906 32.4222 32.5817C32.1463 32.2728 31.7711 32.0292 31.3412 32.1136C29.944 32.2354 29.1175 33.6082 27.8167 33.9821C27.3222 34.0893 26.8522 33.8603 26.3908 33.7153C25.6246 33.4472 24.8225 33.2486 24.0047 33.2863C23.2558 33.2486 22.5443 33.5095 21.8168 33.6387C22.159 33.333 22.4967 33.0054 22.9266 32.8268C23.9472 32.36 25.1028 32.5601 26.1737 32.3209C27.1497 32.0788 27.897 31.3656 28.7323 30.8483C29.6048 30.2495 30.5894 29.812 31.6285 29.6104C32.1963 29.4707 32.7885 29.5027 33.3591 29.3693Z" fill="white"/>
<path d="M57.8122 29.3172C59.0211 28.4504 60.184 27.4632 61.5709 26.8936C61.2576 27.2516 60.904 27.5692 60.5304 27.8574C59.1045 28.9709 57.6586 30.0563 56.1779 31.0942C56.474 30.3158 57.2159 29.8477 57.8122 29.3172Z" fill="#EEFAF9"/>
<path d="M62.8088 28.2833C63.2197 28.1384 63.6639 28.0978 64.0909 28.1993C64.1238 28.9835 63.378 29.4415 62.8821 29.9242C61.3327 31.1708 59.5286 32.0432 57.7017 32.7911C57.8095 32.0243 58.0683 31.2938 58.3397 30.5748C59.7771 29.7169 61.2145 28.8181 62.8088 28.2833Z" fill="#FDFDFC"/>
<path d="M84.0464 30.2694C84.361 29.6806 85.0496 29.4504 85.6692 29.3809C86.868 29.398 87.5465 30.8246 87.2705 31.8783C87.0836 32.5987 86.3894 32.964 85.757 33.2176C85.6477 32.8248 85.5486 32.4291 85.4481 32.0348C85.6652 31.8506 86.0734 31.771 86.072 31.4246C86.0792 31.2158 86.036 31.0114 86.0146 30.8055C85.812 30.7431 85.6078 30.6869 85.4037 30.6417L85.2095 30.981C85.1793 31.8361 85.1247 32.8177 84.445 33.4294C83.9475 33.9397 83.1727 33.9266 82.5216 33.8295C81.3889 33.5251 80.8671 32.1031 81.2769 31.0596C81.5686 30.4231 82.2384 30.123 82.8551 29.8957C82.9831 30.3176 83.0894 30.7449 83.19 31.1739C82.8666 31.3769 82.3004 31.5323 82.3906 32.028C82.3375 32.2889 82.5948 32.4107 82.7427 32.573C83.0691 32.5383 83.4931 32.589 83.6901 32.2557C83.8594 31.6045 83.7559 30.8897 84.0464 30.2694Z" fill="#FBFEFB"/>
<path d="M48.2565 36.6574C48.6419 35.3792 49.8881 34.6311 51.1458 34.4744C52.149 34.4135 53.2388 34.5715 54.0321 35.2441C54.5769 35.6659 54.7852 36.3559 54.9736 36.9925C55.2814 36.9925 55.5903 36.9998 55.8992 37.0215C55.9509 36.2025 56.6466 35.5836 57.3683 35.3166C57.8152 35.1325 58.2407 35.3891 58.6317 35.5819C58.964 35.4195 59.2584 35.1108 59.6594 35.1676C60.0031 35.1283 60.3479 35.4615 60.6744 35.2661C61.1586 34.9951 61.7853 34.911 62.27 35.2285C62.7773 35.4673 62.9498 36.0489 63.082 36.5519C64.0997 36.1938 65.3199 36.1185 66.2183 36.8201C66.4813 36.7026 66.7417 36.578 67.0017 36.4519C67.1901 35.5749 68.1458 34.9994 68.9995 35.2256C69.9438 35.4299 70.5547 36.6316 69.941 37.4651C70.0878 37.9724 70.128 38.5146 69.9353 39.0176C70.3149 39.3973 70.7274 39.8568 70.6383 40.4425C70.7087 41.2354 70.1264 41.8659 69.5259 42.2834C69.9111 42.8748 69.6738 43.5836 69.8966 44.2171C70.0419 44.8259 69.9297 45.5289 69.444 45.9596C68.7769 46.6787 67.7191 46.5726 66.838 46.7352C66.677 46.6308 66.5161 46.5265 66.3551 46.4265C65.4582 46.8523 64.35 46.9307 63.5249 46.2972C63.2008 46.6059 62.8087 46.8325 62.3807 46.9584C61.9423 47.5655 61.3646 48.1731 60.5998 48.308C59.8608 48.3343 59.3462 47.6631 59.214 46.9877C58.4723 47.2225 57.7077 47.1167 56.986 46.8658C56.3548 47.3762 55.4783 47.4368 54.7294 47.1831C54.4089 47.8137 53.9575 48.392 53.3133 48.7095C51.9391 49.4022 50.0505 49.1704 49.0643 47.9137C48.2408 46.8889 48.3758 45.2857 49.346 44.4029C49.2023 44.0854 49.0915 43.7548 49.0314 43.4129C48.8372 43.3549 48.6449 43.2953 48.4534 43.2389C48.2694 43.336 48.0853 43.4331 47.9029 43.5319C46.9296 43.5349 45.9452 43.4347 44.9922 43.69C44.7234 43.4956 44.4027 43.3479 44.226 43.0551C44.0593 42.7551 44.0938 42.4028 44.0853 42.0736C42.8405 41.7054 42.4365 39.9515 43.3005 39.0209C43.8353 38.4395 44.6644 38.3438 45.4076 38.3785C45.8777 38.148 46.434 37.8392 46.9371 38.1915C47.5683 38.4699 47.4792 39.2598 47.8026 39.7645C48.2828 40.0876 48.8203 39.6326 49.3379 39.6311C48.2952 39.0812 48.005 37.7375 48.2565 36.6574Z" fill="#010102"/>
<path d="M50.6108 35.569C51.4531 35.3168 52.4206 35.3356 53.1894 35.7966C54.0015 36.2517 54.2644 37.4592 53.7083 38.2129C53.4769 38.5231 53.0916 38.6435 52.7537 38.7897C53.1662 39.887 53.803 41.1307 55.0019 41.4847C55.6946 41.6746 56.2382 40.9846 56.9107 41.0498C57.2857 41.0597 57.2571 41.5324 57.2887 41.8019C56.6664 42.7673 55.3153 42.9354 54.3436 42.4527C53.369 41.9497 52.741 40.9626 52.3469 39.9638C52.1902 39.5652 52.0637 39.1576 51.9302 38.752C51.8683 38.761 51.7418 38.7767 51.6801 38.7854C51.6946 39.026 51.7104 39.2681 51.7275 39.5101C51.88 39.5796 52.0323 39.6493 52.1859 39.72C52.147 39.8983 52.1054 40.0784 52.061 40.2564C51.7823 40.748 51.3594 41.1435 50.8678 41.4131C50.7271 41.2781 50.5502 41.1751 50.458 40.9997C50.5746 40.6695 50.8332 40.3912 50.8445 40.0256C50.8648 39.3965 50.777 38.7688 50.7885 38.1397C50.8041 37.7658 50.5399 37.4758 50.3443 37.1903C50.6489 36.7757 51.1678 36.8482 51.6177 36.8583C51.6624 36.9366 51.7083 37.0149 51.7557 37.0946C51.6938 37.4266 51.6666 37.7626 51.6551 38.1003C52.0649 38.0989 52.565 38.1525 52.8322 37.7626C53.2519 37.29 52.8624 36.5568 52.3205 36.393C51.4866 36.1072 50.2835 36.3162 49.9502 37.2468C50.0896 37.773 50.6042 38.1513 50.5698 38.7239C50.3485 38.8078 50.1142 39.0037 49.8714 38.8703C49.1915 38.5166 48.96 37.6234 49.1799 36.9236C49.3518 36.2414 49.9627 35.7573 50.6108 35.569Z" fill="#F9FCFA"/>
<path d="M61.2016 36.0314C61.423 35.9499 61.6616 36.0039 61.8915 36.0097C62.0857 36.3605 62.2135 36.8982 61.8499 37.1823C61.5624 37.2941 61.1385 37.2766 61.0077 36.9446C60.7978 36.6431 60.9874 36.2691 61.2016 36.0314Z" fill="#F4FAF9"/>
<path d="M56.8477 36.9283C57.0332 36.5297 57.4471 36.318 57.8279 36.1485C58.3455 37.3385 58.0478 38.6851 58.2821 39.9332C58.4102 40.0854 58.5581 40.2217 58.7004 40.3637C58.7046 40.442 58.7119 40.6 58.7161 40.6783C58.2146 40.9174 57.6468 40.8551 57.1105 40.8174C57.1062 40.7291 57.099 40.5507 57.0948 40.4623C57.1969 40.3043 57.3004 40.1463 57.3793 39.9755C57.359 39.1174 57.2427 38.2633 57.2584 37.404C57.1208 37.2487 56.7629 37.2065 56.8477 36.9283ZM58.8214 36.6732C59.1188 36.4152 59.4224 36.1398 59.8189 36.0571C60.1266 36.7486 60.0704 37.5255 60.1438 38.2648C60.1985 38.9171 60.0087 39.6952 60.5334 40.1999H61.0567C61.1256 40.1173 61.2623 39.9535 61.3297 39.8723C61.3339 39.4344 61.3339 38.9968 61.3139 38.5602C61.186 38.5283 60.9301 38.4663 60.8022 38.4344C60.9229 37.9111 61.3858 37.6038 61.8457 37.4122C62.1592 38.1485 62.0109 38.9704 62.162 39.7416C62.3156 39.9025 62.4709 40.0634 62.6275 40.2243C62.6218 40.2953 62.6119 40.4345 62.6074 40.504C62.1431 40.5913 61.6715 40.6301 61.2002 40.6359C61.0534 40.5243 60.907 40.4171 60.7616 40.3069C60.4096 40.9621 59.5529 40.7621 58.9649 40.633C59.0899 40.2837 59.3789 39.975 59.3316 39.5804C59.3028 38.9529 59.2597 38.3254 59.2295 37.6977C59.208 37.547 59.1893 37.3977 59.1733 37.2481C58.8689 37.1949 58.8314 36.9312 58.8214 36.6732Z" fill="#F8FCF9"/>
<path d="M68.0323 36.4431C68.3286 35.8749 69.3907 36.1416 69.2354 36.8301C69.0399 37.1693 68.6432 37.004 68.334 37.0229C68.6673 37.478 69.3084 37.8955 69.0917 38.5493C68.8344 39.1578 68.0812 39.2073 67.5319 39.39C67.5032 39.4523 67.4456 39.577 67.4168 39.6406C68.0106 39.9479 68.6673 39.4667 69.264 39.7595C69.5545 39.8609 69.6623 40.1755 69.7828 40.4321C69.5787 41.4351 68.4619 41.8251 67.5591 41.7555C67.1753 41.6874 66.6679 41.6323 66.4681 41.2482C66.2884 40.8974 66.6176 40.4669 66.9899 40.535C67.3148 40.764 67.595 41.0571 67.9544 41.2367C68.2836 41.1107 68.8786 41.0555 68.7708 40.5596C68.5927 40.3103 68.2606 40.3422 67.9961 40.3639C67.5978 40.3958 67.1983 40.3958 66.7987 40.3871C66.6952 40.2828 66.593 40.1784 66.491 40.0755C66.4895 39.9421 66.4895 39.8102 66.4895 39.6799C66.6475 39.5327 66.8076 39.3877 66.9696 39.245C66.7869 39.0349 66.5082 38.8725 66.4594 38.578C66.3546 38.2504 66.54 37.9462 66.6619 37.6575C67.1004 37.4169 67.5805 37.2821 68.0734 37.2139C68.0034 36.9662 67.8007 36.6633 68.0323 36.4431Z" fill="#F6FAF7"/>
<path d="M64.19 37.6415C64.5378 37.4212 64.9977 37.1255 65.3987 37.398C65.8329 37.6952 65.7726 38.2735 65.8156 38.733C65.7969 39.1244 66.215 39.3159 66.2425 39.6955C65.8817 40.0826 65.5223 40.7366 64.8956 40.5029C65.0092 39.7434 65.2133 38.9157 64.8568 38.1909C64.6369 38.2477 64.4213 38.3069 64.2026 38.3634C64.1453 38.669 64.0375 38.9751 64.0803 39.2908C64.1178 39.7126 64.5074 39.9533 64.6985 40.3026C64.1985 40.549 63.6408 40.5505 63.0986 40.52L62.873 40.2403C63.011 40.0953 63.1506 39.9533 63.2971 39.8169C63.336 39.6981 63.3777 39.5822 63.4178 39.4645C63.3547 39.1514 63.3257 38.8339 63.3084 38.5165L62.8802 38.4353C62.8831 38.2121 62.9376 37.9988 63.0182 37.7946C63.264 37.6279 63.5082 37.4583 63.7598 37.2971C63.915 37.4743 64.0212 37.6813 64.1249 37.8943C64.1411 37.8316 64.1743 37.7055 64.19 37.6415Z" fill="#F8FBF9"/>
<path d="M67.2387 38.2389C67.348 37.8272 67.8224 37.855 68.1528 37.9084C68.26 38.0721 68.346 38.2491 68.4086 38.4348C68.1772 38.5754 67.93 38.6827 67.6811 38.7856C67.5075 38.6418 67.0993 38.5549 67.2387 38.2389Z" fill="#030207"/>
<path d="M54.6801 38.0531C55.3113 37.7403 56.1738 37.9534 56.5041 38.6025C56.8016 39.2566 56.8176 40.1289 56.2785 40.6609C55.8833 41.1015 55.2077 41.0522 54.6875 40.9247C53.5922 40.4407 53.5777 38.5403 54.6801 38.0531Z" fill="#F8FBF6"/>
<path d="M51.6802 38.7853C51.7422 38.7763 51.8687 38.7607 51.9303 38.752C52.0642 39.1578 52.1907 39.5651 52.347 39.9638C52.2507 40.0609 52.1544 40.158 52.0611 40.2566C52.1059 40.0784 52.1474 39.8985 52.1861 39.7202C52.0324 39.6495 51.8799 39.5796 51.7277 39.5104C51.7106 39.268 51.6946 39.0259 51.6802 38.7853Z" fill="#152028"/>
<path d="M54.8569 38.8073C55.1647 38.4597 55.8057 38.6841 55.8601 39.1392C55.9061 39.5147 55.9779 40.0322 55.5726 40.2438C55.2894 40.2831 54.9087 40.3177 54.7763 39.9945C54.6025 39.6364 54.5681 39.1101 54.8569 38.8073Z" fill="#020103"/>
<path d="M45.8516 39.3508C46.0585 39.1177 46.3146 38.9681 46.6323 39.0319C46.6307 39.2957 46.6712 39.6088 46.4167 39.774C46.191 39.8291 45.9594 39.8335 45.7309 39.854C45.7638 40.4075 45.7567 40.9626 45.8042 41.5152C45.9021 41.6384 46.0011 41.7631 46.1004 41.889C45.8286 42.2603 45.5499 42.7488 45.0166 42.7067C45.1115 42.1179 45.4322 41.4558 45.0369 40.9093C44.804 41.276 44.1917 41.2224 43.9619 40.8821C43.6327 40.5037 43.7015 39.8369 44.1243 39.5543C44.6241 39.1883 45.281 39.4131 45.8516 39.3508Z" fill="#F2FAF9"/>
<path d="M44.2834 40.4929C44.3439 40.2583 44.3049 39.9435 44.5796 39.8436C44.7651 39.8043 44.9535 39.7856 45.1447 39.7856C45.1576 40.0683 45.1763 40.3524 45.202 40.638C44.9131 40.4959 44.5924 40.5148 44.2834 40.4929Z" fill="#030408"/>
<path d="M46.4166 39.7739C46.5214 39.8132 46.7313 39.8902 46.8378 39.9279C46.891 40.2294 46.894 40.5381 46.917 40.8454C47.2404 40.6799 47.5726 40.6206 47.8914 40.8324C47.9243 41.1121 47.9534 41.3916 47.9748 41.6731C48.0623 41.7975 48.1514 41.9237 48.2408 42.0512C48.0803 42.2418 47.9135 42.4269 47.7408 42.6063L47.3282 42.5252C47.4792 42.1033 47.5954 41.6119 47.3153 41.2133C47.1815 41.2612 47.055 41.3261 46.9288 41.3902C46.9318 41.5916 46.9401 41.796 46.9547 41.999C47.0567 42.1671 47.1631 42.3338 47.275 42.4973C46.9329 42.5452 46.5881 42.5756 46.243 42.583C46.2357 42.5278 46.2214 42.4164 46.2142 42.3596C46.3034 42.2222 46.3925 42.0871 46.4773 41.9497C46.3725 41.5047 46.3794 41.0452 46.3783 40.5915C45.8661 40.4713 46.3203 40.0538 46.4166 39.7739Z" fill="#F2F9F8"/>
<path d="M48.8054 40.6554C49.2454 40.5673 49.8491 40.6062 49.9523 41.1555C50.1248 41.7817 49.2969 41.7035 48.9088 41.7209C48.9291 41.7843 48.9707 41.9119 48.9922 41.976C49.3243 41.9687 49.6302 41.8209 49.9581 41.7832C50.0689 42.5746 48.7077 42.6949 48.4948 41.9919C48.2348 41.5192 48.4419 40.9961 48.8054 40.6554Z" fill="#F1FBF9"/>
<path d="M48.7192 41.1726C48.9895 41.09 49.2624 41.0146 49.54 40.9521C49.5904 41.464 48.9607 41.5162 48.7192 41.1726Z" fill="#61A6C3"/>
<path d="M51.7622 41.9918C52.0626 42.0367 52.3341 41.6482 52.6173 41.8683C53.0027 42.1944 53.237 42.7148 53.2183 43.2239C53.0918 43.3296 52.9465 43.4051 52.8043 43.4848C52.4419 43.1801 52.0783 42.8615 51.6272 42.7049C51.4515 42.7682 51.2761 42.8324 51.1011 42.8977C51.0781 43.1152 50.8381 43.4065 51.1299 43.5367C51.8772 43.9733 52.7901 44.0704 53.4744 44.6372C53.8796 45.1837 54.0206 45.8649 53.9559 46.5372C53.5247 48.2086 51.2035 48.6623 50.0074 47.555C49.26 46.9331 49.2528 45.5024 50.1526 45.0165C50.624 44.7226 51.3126 44.7266 51.6706 45.1977C51.6045 45.356 51.54 45.5152 51.4753 45.6746C51.1549 45.7851 50.7623 45.8022 50.541 46.0921C50.4301 46.5009 50.5941 46.9882 51.0024 47.1563C51.5428 47.3967 52.2758 47.3416 52.7028 46.9027C53.1856 46.3475 53.0408 45.3749 52.3866 45.0197C51.7441 44.6762 50.9952 44.5573 50.3887 44.1398C49.9128 43.8079 49.831 43.0947 50.1747 42.6384C50.5075 42.1048 51.1672 41.9106 51.7622 41.9918Z" fill="#F8FCF9"/>
<path d="M66.796 42.7196C67.1882 42.3662 67.7777 42.7196 68.1787 42.3833C68.2521 42.3833 68.4001 42.3818 68.4734 42.3818C68.6688 42.6923 68.8198 43.0298 68.9422 43.3791C68.5253 43.7575 68.1011 43.3704 67.7333 43.1371C67.6672 43.146 67.5322 43.1602 67.4661 43.1689C67.4645 43.282 67.4631 43.3965 67.4645 43.5125C67.9374 43.7299 68.5154 43.785 68.8904 44.1796C69.1764 44.4869 68.9723 44.9043 68.889 45.2551C68.5109 45.5827 68.028 45.6726 67.5437 45.5855C67.3698 45.6711 67.1858 45.8391 66.9801 45.7509C66.638 45.461 66.4166 45.0333 66.4312 44.5782C66.9529 44.3013 67.3555 44.8145 67.8197 44.9738C68.1618 45.1129 68.0857 44.6855 68.1259 44.4998C67.6384 44.3418 67.1441 44.1951 66.687 43.9591L66.4802 43.6231C66.4741 43.2949 66.5387 42.9443 66.796 42.7196Z" fill="#F7FAF9"/>
<path d="M61.0995 43.2079C61.4979 42.9702 61.988 42.7122 62.4437 42.9702C63.3218 43.4685 63.4283 44.8126 62.8618 45.5892C62.5817 46.0342 61.9187 46.1661 61.5006 45.8459C61.2548 45.7184 61.2345 45.3122 61.4546 45.1516C61.6603 45.1212 61.8701 45.1081 62.0813 45.111C62.4162 44.7863 62.5025 44.3341 62.2838 43.9151L61.962 43.689C61.6542 43.6919 61.2636 43.7687 61.1928 44.1297C61.1397 44.6138 61.1756 45.1038 61.1944 45.5907C61.1871 45.8706 61.4704 46.0083 61.5983 46.2272C61.6646 46.4544 61.4474 46.6098 61.3338 46.7736C61.0563 47.0421 60.7605 47.4361 60.3246 47.319C60.1493 46.9203 60.3965 46.5058 60.385 46.0984C60.3591 45.4444 60.2742 44.7953 60.2917 44.1416C60.1522 44.0731 60.013 44.0065 59.8762 43.9398C59.8632 43.8586 59.8372 43.6963 59.8259 43.6151C60.1076 43.3081 60.4152 42.9628 60.8579 42.9283C60.9184 42.9977 61.0392 43.1382 61.0995 43.2079Z" fill="#F8FCF9"/>
<path d="M63.9659 43.0501C64.5554 42.4497 65.7267 42.5642 66.096 43.3603C66.2413 43.6691 66.3319 44.2039 65.9465 44.3677C65.4694 44.6184 64.9247 44.5446 64.4101 44.5489C64.4232 44.6229 64.4518 44.7736 64.4663 44.8475C65.0341 45.2708 65.5646 44.6707 66.1582 44.691C66.1697 44.8722 66.2071 45.0564 66.1843 45.2404C65.9717 45.6233 65.5087 45.7145 65.1321 45.8506C64.4177 45.8608 63.6977 45.3987 63.5854 44.6548C63.4197 44.0993 63.5692 43.4703 63.9659 43.0501Z" fill="#F8FBF9"/>
<path d="M57.1756 43.5905C57.5378 43.0353 58.291 43.0019 58.8645 43.1704C59.5775 43.4357 59.7169 44.2952 59.6952 44.9675C59.5701 45.3604 59.4092 45.8041 59.0124 45.997C58.6286 46.2231 58.1744 46.1361 57.7531 46.1518C56.8348 45.6952 56.5458 44.3993 57.1756 43.5905Z" fill="#F9FDF8"/>
<path d="M54.6773 43.5312C54.9433 43.2935 55.304 43.2358 55.633 43.1401C55.9363 43.2471 56.2841 43.3083 56.517 43.5504C56.6909 43.7866 56.6449 44.1531 56.3717 44.2966C55.9794 44.1371 55.5912 43.9243 55.1542 43.9922C54.9084 44.4314 54.799 45.0851 55.2562 45.4269C55.7448 45.669 56.2049 45.1718 56.7093 45.2501C56.7192 45.5081 56.8401 45.8603 56.5582 46.0212C56.176 46.3894 55.6052 46.4109 55.1167 46.3096C54.0349 45.9144 53.8091 44.2532 54.6773 43.5312Z" fill="#F7FCF8"/>
<path d="M64.5164 43.4456C64.8829 43.3615 65.4205 43.272 65.4477 43.8051C65.0612 43.9167 64.6613 43.9715 64.2603 43.9921C64.3425 43.808 64.4286 43.6268 64.5164 43.4456Z" fill="#03080A"/>
<path d="M57.9028 43.8603C58.1471 43.7472 58.4174 43.8284 58.6719 43.8617C58.8604 44.2272 59.0099 44.6503 58.8444 45.0576C58.6949 45.5606 57.8783 45.5722 57.7089 45.0706C57.6498 44.6677 57.5637 44.1645 57.9028 43.8603Z" fill="#040304"/>
<path d="M83.5302 48.0754C84.5465 47.8405 85.2839 47.039 86.0687 46.4272C87.4916 46.5765 88.8445 47.2549 89.8403 48.287C90.7115 49.2669 91.3122 50.5512 91.2563 51.8891C91.3381 53.6664 90.4069 55.3756 89.0513 56.4668C86.7602 58.3642 83.1377 58.4034 80.8768 56.4336C79.5384 55.3071 78.778 53.4952 78.9967 51.7429C79.1075 50.6774 79.5529 49.67 80.1956 48.8235C81.3123 48.6016 82.4178 48.3202 83.5302 48.0754Z" fill="white"/>
<path d="M17.7217 49.3018C18.14 49.7236 18.5497 50.1541 18.9752 50.5687C19.2842 50.8354 19.3331 51.2659 19.4752 51.6294C21.5251 57.474 25.0639 62.7764 29.6651 66.8902C33.7646 70.572 38.6906 73.3233 43.9802 74.8192C50.0074 76.5398 56.4784 76.6558 62.5587 75.1306C71.1773 73.0273 78.9179 67.5773 83.9129 60.1988C84.3353 60.1495 84.7596 60.1032 85.1863 60.0843C80.1049 67.9511 72.0241 73.8071 62.9769 76.0556C60.8022 76.6279 58.5713 76.9689 56.332 77.118C53.2644 77.324 50.174 77.1396 47.1497 76.5876C41.1932 75.5045 35.5213 72.9043 30.7676 69.1312C24.4688 64.1523 19.7915 57.1061 17.7217 49.3018Z" fill="#FAFCFA"/>
<path d="M74.8325 49.8293C75.0152 49.8079 75.2048 49.7394 75.3918 49.7858C76.5088 50.7019 77.3063 52.0239 77.4847 53.4763C77.929 56.3146 75.9093 59.1542 73.2344 59.9587C71.4289 60.5501 69.355 60.3066 67.778 59.2223C66.5417 58.412 65.6261 57.109 65.3314 55.6463C64.9877 54.1797 65.3271 52.5852 66.1392 51.3325C66.2383 51.1165 66.497 51.144 66.6912 51.1063C69.4151 50.7482 72.1259 50.299 74.8325 49.8293ZM37.2027 54.4968C37.7922 52.6487 39.2338 51.0368 41.088 50.4396C41.3424 51.2354 41.9648 51.8746 42.7597 52.1254C44.5075 52.7242 46.3861 52.4837 48.1988 52.5373C49.0899 53.8634 49.5545 55.5335 49.2195 57.1237C48.7481 59.9445 46.1004 62.1652 43.273 62.1623C41.2159 62.2638 39.1534 61.2244 37.9977 59.5053C37.0043 58.0626 36.7343 56.1826 37.2027 54.4968ZM52.7727 52.4138C55.7928 52.2761 58.8128 52.0573 61.8154 51.6891C62.8789 52.7777 63.5617 54.2736 63.5 55.8188C63.4843 57.6365 62.4924 59.3687 61.0293 60.4037C59.6524 61.3952 57.857 61.7866 56.1994 61.4184C54.0507 60.9908 52.2207 59.2673 51.7133 57.1074C51.5796 56.1406 51.5667 55.1375 51.8556 54.1968C52.0714 53.559 52.4133 52.9774 52.7727 52.4138Z" fill="white"/>
<path d="M34.0435 53.6288C34.2663 53.516 34.4919 53.4073 34.7189 53.2969C34.2086 54.5438 34.0649 55.902 34.1326 57.2382C33.2525 56.2104 32.4309 55.1331 31.6718 54.0115C32.481 54.0448 33.2873 53.9303 34.0435 53.6288Z" fill="#FAFCFB"/>
<path d="M27.5793 58.4181C28.7451 57.6861 29.8404 56.841 31.0147 56.1206C31.2921 56.5308 31.5652 56.9439 31.8168 57.3716C30.7574 58.0673 29.7211 58.795 28.6617 59.4879C28.1616 59.7952 27.6081 60.1155 26.9986 60.0405C25.9164 60.0042 25.0509 58.8794 25.2177 57.8151C25.337 57.1614 25.7984 56.5874 26.3992 56.3163C26.6321 56.6888 26.9009 57.0367 27.1253 57.415C26.9154 57.7267 26.4754 58.0123 26.668 58.4445C26.8996 58.7747 27.3064 58.5747 27.5793 58.4181Z" fill="#FBFDFB"/>
<path d="M30.8323 59.6516C31.2894 59.2208 31.8097 58.7035 32.4925 58.7819C33.5316 58.9238 34.3798 59.8473 34.5437 60.8778C34.5969 61.5085 34.2131 62.0648 33.7459 62.4434C32.7124 63.3682 31.7566 64.3814 30.6871 65.2657C30.4199 64.9903 30.1497 64.719 29.8836 64.4438C30.3752 63.7828 31.0393 63.2711 31.6459 62.7217C31.3469 62.3504 31.0292 61.997 30.7058 61.6502C30.059 62.1461 29.51 62.7565 28.892 63.2853C28.6117 63.0331 28.3472 62.7649 28.0841 62.4953C28.0784 62.4434 28.0669 62.3359 28.0597 62.2822C28.9621 61.3822 29.9309 60.5513 30.8323 59.6516Z" fill="#FCFDFB"/>
<path d="M55.7582 63.7403C59.044 64.1665 62.4911 62.3386 63.9602 59.334C64.9017 60.6183 66.26 61.5719 67.7693 62.0504C67.7651 62.0809 67.7536 62.1432 67.7479 62.1736C62.6722 65.3278 56.5345 66.7078 50.6167 65.9439C48.3758 65.6598 46.1608 65.1006 44.0724 64.2276C46.4987 63.7391 48.6304 62.0649 49.7559 59.85C50.9991 62.0071 53.2989 63.4898 55.7582 63.7403Z" fill="white"/>
<path d="M32.1806 60.1996C32.7283 60.1633 33.3591 60.6796 33.1394 61.2693C32.9467 61.5001 32.7096 61.6885 32.4838 61.8854C32.1488 61.5592 31.824 61.2232 31.5178 60.8692C31.7377 60.645 31.9586 60.4217 32.1806 60.1996Z" fill="#020304"/>
<path d="M35.9308 61.4546C36.2699 61.681 36.592 61.9329 36.9197 62.1779C36.4885 63.194 36.0803 64.2218 35.6131 65.2219C35.5973 65.3159 35.5627 65.5029 35.5454 65.5959C36.4626 64.7885 37.4241 64.0361 38.3642 63.2561C38.6746 63.5155 38.9952 63.762 39.3229 63.9998C37.6902 65.3901 36.0083 66.7219 34.3624 68.099C34.0519 67.8613 33.7386 67.6293 33.4224 67.4003C34.2446 65.4118 35.1056 63.4419 35.9308 61.4546Z" fill="#FBFDFB"/>
<path d="M65.9335 65.7036C67.0804 65.0568 68.1944 64.3537 69.3144 63.6626C69.5457 64.025 69.7671 64.3946 69.9656 64.7785C69.6019 65.0017 69.2209 65.1961 68.8745 65.4455C68.9062 65.6354 69.0083 65.8007 69.1046 65.9659C69.8321 67.185 70.5821 68.3925 71.2851 69.6289C71.318 69.6521 71.3857 69.6985 71.4189 69.722C71.0533 69.9365 70.6947 70.1631 70.3439 70.4015C69.3824 69.0392 68.6363 67.5346 67.7237 66.1387C67.3341 66.3674 66.9532 66.6113 66.5508 66.8171C66.3446 66.4441 66.1362 66.0745 65.9335 65.7036Z" fill="#FBFDF9"/>
<path d="M40.1868 65.0584C41.3482 64.7134 42.7727 65.4553 43.0616 66.6674C43.1782 67.3081 42.7929 67.8705 42.5269 68.417C41.982 69.5314 41.4028 70.6258 40.8422 71.7321C40.4656 71.5654 40.102 71.3726 39.7426 71.1737C40.1036 70.4345 40.4786 69.7039 40.8437 68.9675C40.4182 68.7501 40.01 68.4876 39.553 68.3413C39.2151 69.0574 38.8185 69.7448 38.4921 70.4678C38.0998 70.3576 37.7375 70.168 37.3725 69.9938C37.3997 69.6604 37.5464 69.3589 37.7015 69.0705C38.199 68.0746 38.7265 67.0947 39.2108 66.0916C39.4077 65.6482 39.704 65.2106 40.1868 65.0584Z" fill="#FBFDFA"/>
<path d="M40.5088 66.4645C40.5907 66.4323 40.7517 66.3703 40.8322 66.3384C41.216 66.4196 41.7794 66.592 41.7722 67.0788C41.679 67.3876 41.5063 67.6644 41.3568 67.9485C40.9314 67.7383 40.5059 67.5285 40.0903 67.298C40.2239 67.0172 40.3634 66.7393 40.5088 66.4645Z" fill="#020304"/>
<path d="M61.5294 67.2803C62.5443 66.9977 63.5505 66.1856 64.6386 66.5932C65.6849 66.8962 66.2801 68.2254 65.7812 69.2097C65.4651 69.8518 64.8339 70.2403 64.1844 70.4693C64.4546 71.1941 64.7506 71.9099 64.9922 72.6465C64.6416 72.8016 64.285 72.9395 63.9386 73.1002C63.8522 73.1033 63.7661 73.106 63.6813 73.1104C63.1063 71.6333 62.5585 70.1461 61.9909 68.6661C61.8168 68.2109 61.5984 67.7674 61.5294 67.2803Z" fill="#FCFEFC"/>
<path d="M44.9532 66.9339C45.636 66.7295 46.3948 66.8762 46.9859 67.2673C47.6212 67.7673 47.7447 68.6864 47.5148 69.4271C47.1398 69.33 46.7675 69.2241 46.4024 69.0995C46.3635 68.789 46.4296 68.3515 46.0905 68.1877C45.8848 68.037 45.6248 68.0833 45.3905 68.0674C45.3186 68.2428 45.2482 68.4209 45.179 68.5994C45.8244 69.1778 46.6998 69.5735 47.029 70.4418C47.3941 71.5593 46.6008 72.8683 45.4579 73.0886C45.2896 73.0846 45.1244 73.0828 44.959 73.0828C44.3683 72.9338 43.707 72.7235 43.3877 72.1522C43.0472 71.5988 43.1477 70.9159 43.2383 70.3058C43.6596 70.3971 44.082 70.4926 44.4874 70.6464C44.516 71.0566 44.4685 71.5017 44.7748 71.8264C44.9242 71.8264 45.2217 71.8281 45.3699 71.8281C45.5641 71.5553 45.8042 71.2483 45.758 70.8931C45.3024 70.2698 44.4831 70.0234 44.0935 69.3389C43.7415 68.4875 44.0866 67.3223 44.9532 66.9339Z" fill="#FAFCF9"/>
<path d="M59.1821 67.6764C59.6377 67.5793 60.0934 67.4796 60.5548 67.4141C60.9729 69.4521 61.3267 71.5032 61.7552 73.5398C61.3801 73.6297 61.0035 73.7109 60.6225 73.7718C60.5765 73.8007 60.4829 73.859 60.4371 73.8895C60.2501 73.3791 60.1812 72.8385 60.072 72.3106C59.7757 70.7654 59.4726 69.2231 59.1821 67.6764Z" fill="#FBFEFA"/>
<path d="M63.2686 68.0951C63.641 67.94 64.0363 67.8281 64.443 67.9153C64.6024 68.2038 64.7233 68.5444 64.5779 68.8674C64.3352 69.1066 63.9974 69.2011 63.6781 69.2866C63.5388 68.8893 63.3895 68.4965 63.2686 68.0951Z" fill="#020204"/>
<path d="M49.1979 68.7794C49.865 67.7285 51.5552 67.5835 52.4049 68.4924C52.6637 68.7446 52.783 69.0954 52.9294 69.419C52.9279 69.748 52.9265 70.0785 52.9207 70.4104C52.4937 70.4261 52.0669 70.3858 51.6427 70.3423C51.6386 70.1205 51.6328 69.8985 51.634 69.6799C51.3537 69.3726 50.9225 69.194 50.5257 69.3784C50.1736 69.6306 50.2352 70.1075 50.1549 70.4844C50.0931 71.1004 49.9436 71.7078 49.9493 72.3325C50.0024 72.4123 50.1118 72.5717 50.165 72.6514C50.4925 72.8457 50.8576 72.8022 51.1898 72.6413C51.2818 72.421 51.3737 72.2021 51.4642 71.9832C51.8855 72.0296 52.3052 72.0963 52.7277 72.1429C52.7263 72.7793 52.5151 73.4994 51.9215 73.8198C50.9971 74.3242 49.6663 74.2459 48.9992 73.3487C48.4618 72.7532 48.591 71.8933 48.7263 71.1701C48.8975 70.3768 48.8888 69.5346 49.1979 68.7794Z" fill="#FCFEFD"/>
<path d="M53.9241 68.1864C54.7303 68.0719 55.5453 68.0139 56.3603 68.0139C56.7759 67.9994 57.1509 68.1995 57.5088 68.3908C58.0967 69.1173 58.2045 70.1871 57.7604 71.0133C57.6166 71.3015 57.355 71.5073 57.2041 71.79C57.5447 72.5962 58.0651 73.3137 58.4618 74.0962C58.0004 74.1034 57.542 74.1472 57.0833 74.1775C56.5688 73.3993 56.1589 72.5527 55.5884 71.8146C55.5958 72.6441 55.7379 73.4642 55.7552 74.2948C55.3196 74.3325 54.887 74.3934 54.45 74.4079C54.3954 73.964 54.3812 73.5164 54.3293 73.0728C54.2429 72.0087 54.1466 70.9446 54.0517 69.8808C53.9875 69.3171 53.9614 68.7517 53.9241 68.1864Z" fill="#FDFEFC"/>
<path d="M55.3873 69.3185C55.8331 69.1825 56.29 69.2619 56.6738 69.5214C56.7254 69.695 56.78 69.8722 56.8348 70.0476C56.7254 70.2549 56.6406 70.5039 56.4223 70.623C56.129 70.71 55.827 70.7593 55.5253 70.8086C55.4261 70.317 55.3916 69.8185 55.3873 69.3185Z" fill="#010204"/>
</g>
<defs>
<clipPath id="clip0_278_2">
<rect width="93" height="79" fill="white"/>
</clipPath>
</defs>
</svg>
